<mxfile host="app.diagrams.net" modified="2023-06-20T22:01:41.347Z" agent="Mozilla/5.0 (Macintosh; Intel Mac OS X 10_15_7) AppleWebKit/605.1.15 (KHTML, like Gecko) Version/16.4 Safari/605.1.15" etag="gd9INTjW6cbrIZRTYOhb" version="21.4.0" type="github">
  <diagram name="Page-1" id="Rj1dO5r0o6vdtNth5Kvn">
    <mxGraphModel dx="1026" dy="668" grid="1" gridSize="10" guides="1" tooltips="1" connect="1" arrows="1" fold="1" page="1" pageScale="1" pageWidth="827" pageHeight="1169" math="0" shadow="0">
      <root>
        <mxCell id="0" />
        <mxCell id="1" parent="0" />
        <mxCell id="8UoSEGxeWdp93AbzUFEN-4" value="&lt;font style=&quot;font-size: 16px;&quot;&gt;Hypervisor&lt;br&gt;ProxMox&lt;/font&gt;" style="rounded=1;whiteSpace=wrap;html=1;fillColor=#e1d5e7;strokeColor=#9673a6;" vertex="1" parent="1">
          <mxGeometry x="20" y="920" width="800" height="60" as="geometry" />
        </mxCell>
        <mxCell id="8UoSEGxeWdp93AbzUFEN-5" value="Server 1" style="rounded=1;whiteSpace=wrap;html=1;fontSize=16;fillColor=#1ba1e2;strokeColor=#006EAF;fontColor=#ffffff;" vertex="1" parent="1">
          <mxGeometry x="20" y="1080" width="250" height="60" as="geometry" />
        </mxCell>
        <mxCell id="8UoSEGxeWdp93AbzUFEN-6" value="Server 2" style="rounded=1;whiteSpace=wrap;html=1;fontSize=16;fillColor=#1ba1e2;strokeColor=#006EAF;fontColor=#ffffff;" vertex="1" parent="1">
          <mxGeometry x="295" y="1080" width="250" height="60" as="geometry" />
        </mxCell>
        <mxCell id="8UoSEGxeWdp93AbzUFEN-7" value="Server 3" style="rounded=1;whiteSpace=wrap;html=1;fontSize=16;fillColor=#1ba1e2;strokeColor=#006EAF;fontColor=#ffffff;" vertex="1" parent="1">
          <mxGeometry x="570" y="1080" width="250" height="60" as="geometry" />
        </mxCell>
        <mxCell id="8UoSEGxeWdp93AbzUFEN-8" value="Host OS" style="rounded=1;whiteSpace=wrap;html=1;fontSize=16;fillColor=#dae8fc;strokeColor=#6c8ebf;" vertex="1" parent="1">
          <mxGeometry x="20" y="1000" width="250" height="60" as="geometry" />
        </mxCell>
        <mxCell id="8UoSEGxeWdp93AbzUFEN-9" value="Host OS" style="rounded=1;whiteSpace=wrap;html=1;fontSize=16;fillColor=#dae8fc;strokeColor=#6c8ebf;" vertex="1" parent="1">
          <mxGeometry x="295" y="1000" width="250" height="60" as="geometry" />
        </mxCell>
        <mxCell id="8UoSEGxeWdp93AbzUFEN-10" value="Host OS" style="rounded=1;whiteSpace=wrap;html=1;fontSize=16;fillColor=#dae8fc;strokeColor=#6c8ebf;" vertex="1" parent="1">
          <mxGeometry x="570" y="1000" width="250" height="60" as="geometry" />
        </mxCell>
        <mxCell id="8UoSEGxeWdp93AbzUFEN-12" value="VM 1&lt;br&gt;RKE2 A&lt;br&gt;&lt;font style=&quot;font-size: 12px;&quot;&gt;Rocky Linux 9&lt;/font&gt;" style="rounded=1;whiteSpace=wrap;html=1;fontSize=16;fillColor=#b1ddf0;strokeColor=#10739e;" vertex="1" parent="1">
          <mxGeometry x="20" y="840" width="120" height="60" as="geometry" />
        </mxCell>
        <mxCell id="8UoSEGxeWdp93AbzUFEN-13" value="&lt;font size=&quot;3&quot;&gt;Kubernetes Cluster&lt;br&gt;&lt;/font&gt;RKE2" style="rounded=1;whiteSpace=wrap;html=1;fillColor=#fff2cc;strokeColor=#d6b656;verticalAlign=top;" vertex="1" parent="1">
          <mxGeometry x="20" y="520" width="450" height="300" as="geometry" />
        </mxCell>
        <mxCell id="8UoSEGxeWdp93AbzUFEN-14" value="VM 2&lt;br&gt;RKE2 B&lt;br&gt;&lt;font style=&quot;font-size: 12px;&quot;&gt;Rocky Linux 9&lt;/font&gt;" style="rounded=1;whiteSpace=wrap;html=1;fontSize=16;fillColor=#b1ddf0;strokeColor=#10739e;" vertex="1" parent="1">
          <mxGeometry x="185" y="840" width="120" height="60" as="geometry" />
        </mxCell>
        <mxCell id="8UoSEGxeWdp93AbzUFEN-15" value="VM 3&lt;br&gt;RKE2 C&lt;br&gt;&lt;font style=&quot;font-size: 12px;&quot;&gt;Rocky Linux 9&lt;/font&gt;" style="rounded=1;whiteSpace=wrap;html=1;fontSize=16;fillColor=#b1ddf0;strokeColor=#10739e;" vertex="1" parent="1">
          <mxGeometry x="350" y="840" width="120" height="60" as="geometry" />
        </mxCell>
        <mxCell id="8UoSEGxeWdp93AbzUFEN-16" value="VM4&lt;br&gt;Rocky Linux 8" style="rounded=1;whiteSpace=wrap;html=1;fontSize=16;fillColor=#d5e8d4;strokeColor=#82b366;" vertex="1" parent="1">
          <mxGeometry x="500" y="840" width="170" height="60" as="geometry" />
        </mxCell>
        <mxCell id="8UoSEGxeWdp93AbzUFEN-17" value="VM5&lt;br&gt;Rocky Linux 8" style="rounded=1;whiteSpace=wrap;html=1;fontSize=16;fillColor=#d5e8d4;strokeColor=#82b366;" vertex="1" parent="1">
          <mxGeometry x="700" y="840" width="120" height="60" as="geometry" />
        </mxCell>
        <mxCell id="8UoSEGxeWdp93AbzUFEN-18" value="APP 1&lt;br&gt;WRF" style="rounded=1;whiteSpace=wrap;html=1;fontSize=16;fillColor=#ffe6cc;strokeColor=#d79b00;" vertex="1" parent="1">
          <mxGeometry x="700" y="760" width="120" height="60" as="geometry" />
        </mxCell>
        <mxCell id="8UoSEGxeWdp93AbzUFEN-19" value="Docker" style="rounded=1;whiteSpace=wrap;html=1;fontSize=16;fillColor=#fff2cc;strokeColor=#d6b656;verticalAlign=top;" vertex="1" parent="1">
          <mxGeometry x="500" y="520" width="170" height="300" as="geometry" />
        </mxCell>
        <mxCell id="8UoSEGxeWdp93AbzUFEN-20" value="APP 1&lt;br&gt;&lt;font style=&quot;font-size: 12px;&quot;&gt;SmartMet Server&lt;/font&gt;" style="rounded=1;whiteSpace=wrap;html=1;fontSize=16;fillColor=#ffe6cc;strokeColor=#d79b00;" vertex="1" parent="1">
          <mxGeometry x="40" y="570" width="120" height="60" as="geometry" />
        </mxCell>
        <mxCell id="8UoSEGxeWdp93AbzUFEN-21" value="APP 2&lt;br&gt;&lt;font style=&quot;font-size: 12px;&quot;&gt;SmartMet Alert&lt;/font&gt;" style="rounded=1;whiteSpace=wrap;html=1;fontSize=16;fillColor=#ffe6cc;strokeColor=#d79b00;" vertex="1" parent="1">
          <mxGeometry x="185" y="570" width="120" height="60" as="geometry" />
        </mxCell>
        <mxCell id="8UoSEGxeWdp93AbzUFEN-22" value="APP 3&lt;br&gt;&lt;span style=&quot;font-size: 12px;&quot;&gt;GeoWeb&lt;/span&gt;" style="rounded=1;whiteSpace=wrap;html=1;fontSize=16;fillColor=#ffe6cc;strokeColor=#d79b00;" vertex="1" parent="1">
          <mxGeometry x="340" y="570" width="120" height="60" as="geometry" />
        </mxCell>
        <mxCell id="8UoSEGxeWdp93AbzUFEN-23" value="APP 1&lt;br&gt;&lt;font style=&quot;font-size: 12px;&quot;&gt;SmartMet Server&lt;/font&gt;" style="rounded=1;whiteSpace=wrap;html=1;fontSize=16;fillColor=#ffe6cc;strokeColor=#d79b00;" vertex="1" parent="1">
          <mxGeometry x="525" y="555" width="120" height="60" as="geometry" />
        </mxCell>
        <mxCell id="8UoSEGxeWdp93AbzUFEN-24" value="APP 2&lt;br&gt;&lt;font style=&quot;font-size: 12px;&quot;&gt;SmartMet Alert&lt;/font&gt;" style="rounded=1;whiteSpace=wrap;html=1;fontSize=16;fillColor=#ffe6cc;strokeColor=#d79b00;" vertex="1" parent="1">
          <mxGeometry x="525" y="640" width="120" height="60" as="geometry" />
        </mxCell>
        <mxCell id="8UoSEGxeWdp93AbzUFEN-25" value="APP 3&lt;br&gt;&lt;span style=&quot;font-size: 12px;&quot;&gt;GeoWeb&lt;/span&gt;" style="rounded=1;whiteSpace=wrap;html=1;fontSize=16;fillColor=#ffe6cc;strokeColor=#d79b00;" vertex="1" parent="1">
          <mxGeometry x="525" y="730" width="120" height="60" as="geometry" />
        </mxCell>
        <mxCell id="8UoSEGxeWdp93AbzUFEN-26" value="" style="sketch=0;html=1;dashed=0;whitespace=wrap;fillColor=#2875E2;strokeColor=#ffffff;points=[[0.005,0.63,0],[0.1,0.2,0],[0.9,0.2,0],[0.5,0,0],[0.995,0.63,0],[0.72,0.99,0],[0.5,1,0],[0.28,0.99,0]];verticalLabelPosition=bottom;align=center;verticalAlign=top;shape=mxgraph.kubernetes.icon;prIcon=node" vertex="1" parent="1">
          <mxGeometry x="110" y="830" width="50" height="48" as="geometry" />
        </mxCell>
        <mxCell id="8UoSEGxeWdp93AbzUFEN-27" value="" style="sketch=0;html=1;dashed=0;whitespace=wrap;fillColor=#2875E2;strokeColor=#ffffff;points=[[0.005,0.63,0],[0.1,0.2,0],[0.9,0.2,0],[0.5,0,0],[0.995,0.63,0],[0.72,0.99,0],[0.5,1,0],[0.28,0.99,0]];verticalLabelPosition=bottom;align=center;verticalAlign=top;shape=mxgraph.kubernetes.icon;prIcon=node" vertex="1" parent="1">
          <mxGeometry x="280" y="830" width="50" height="48" as="geometry" />
        </mxCell>
        <mxCell id="8UoSEGxeWdp93AbzUFEN-28" value="" style="sketch=0;html=1;dashed=0;whitespace=wrap;fillColor=#2875E2;strokeColor=#ffffff;points=[[0.005,0.63,0],[0.1,0.2,0],[0.9,0.2,0],[0.5,0,0],[0.995,0.63,0],[0.72,0.99,0],[0.5,1,0],[0.28,0.99,0]];verticalLabelPosition=bottom;align=center;verticalAlign=top;shape=mxgraph.kubernetes.icon;prIcon=node" vertex="1" parent="1">
          <mxGeometry x="440" y="830" width="50" height="48" as="geometry" />
        </mxCell>
      </root>
    </mxGraphModel>
  </diagram>
</mxfile>
